<?xml version="1.0" encoding="utf-8"?>
<!-- Generator: Adobe Illustrator 26.5.0, SVG Export Plug-In . SVG Version: 6.00 Build 0)  -->
<svg version="1.1" xmlns="http://www.w3.org/2000/svg" xmlns:xlink="http://www.w3.org/1999/xlink" x="0px" y="0px"
	 viewBox="0 0 100 100" style="enable-background:new 0 0 100 100;" xml:space="preserve">
<style type="text/css">
	.st0{display:none;}
	.st1{display:inline;fill:#FF8066;}
	.st2{fill:none;stroke:#FF8066;stroke-width:4;stroke-miterlimit:10;}
</style>
<g id="Layer_1" class="st0">
	<path class="st1" d="M19,100h52.7l0,0c10.5,0,19-8.5,19-19V48.8c0-2.5-1.9-4.4-4.4-4.4l0,0c-2.5,0-4.4,1.9-4.4,4.4V81
		c0,5.7-4.5,10.2-10.2,10.2l0,0H19c-5.7,0-10.2-4.5-10.2-10.2V28.3C8.7,22.5,13.3,18,19,18l0,0h32.2l0,0c2.5,0,4.4-1.9,4.4-4.4
		s-1.9-4.4-4.4-4.4H19l0,0c-10.5,0-19,8.5-19,19l0,0V81C-0.1,91.5,8.4,100,19,100z"/>
	<path class="st1" d="M100.1,31.3V4.5c0-0.3,0-0.6-0.1-0.9c0-0.1,0-0.3-0.1-0.3c0-0.1-0.1-0.3-0.1-0.4c0-0.1-0.1-0.3-0.3-0.4
		c0-0.1-0.1-0.3-0.1-0.3C98.9,1.8,98.5,1.3,98,1l-0.3-0.1c-0.3-0.4-0.6-0.6-0.9-0.6l-0.4-0.1c-0.3,0-0.6-0.1-0.9-0.1l0,0H68.7l0,0
		c-2.5,0-4.4,1.9-4.4,4.4s1.9,4.4,4.4,4.4H85L44.7,49.2c-1.8,1.8-1.8,4.5,0,6.1c1.8,1.8,4.5,1.8,6.1,0L91.2,15v16.3
		c0,2.5,1.9,4.4,4.4,4.4l0,0C98,35.7,99.9,33.7,100.1,31.3z"/>
</g>
<g id="Layer_2" class="st0">
	
		<image style="display:inline;overflow:visible;" width="18" height="16" xlink:href="5604F75C.jpg"  transform="matrix(7 0 0 7 -12.0169 0)">
	</image>
</g>
<g id="Layer_3">
	<path class="st2" d="M6.2,88.9V38.6c0-2.3,1.1-4.5,3-5.8l38-26.3c2.3-1.6,5.2-1.5,7.4,0.1l36.3,26.4c1.8,1.3,2.9,3.4,2.9,5.7v50.3
		c0,3.8-3,7-6.6,7H40.1H12.9C9.2,95.9,6.2,92.7,6.2,88.9z"/>
	<path class="st2" d="M37.8,95.9V52.7c0-2.5,2-4.5,4.5-4.5h15.5c2.5,0,4.5,2,4.5,4.5v43.2"/>
</g>
</svg>
